<svg version="1.1" xmlns="http://www.w3.org/2000/svg" xmlns:xlink="http://www.w3.org/1999/xlink" width="756" height="596"><defs/><g><text fill="#eeeeee" stroke="none" font-family="Arial" font-size="24px" font-style="normal" font-weight="normal" text-decoration="none" x="0" y="0">UNREGISTERED</text><text fill="#eeeeee" stroke="none" font-family="Arial" font-size="24px" font-style="normal" font-weight="normal" text-decoration="none" x="0" y="30">UNREGISTERED</text><text fill="#eeeeee" stroke="none" font-family="Arial" font-size="24px" font-style="normal" font-weight="normal" text-decoration="none" x="0" y="60">UNREGISTERED</text><text fill="#eeeeee" stroke="none" font-family="Arial" font-size="24px" font-style="normal" font-weight="normal" text-decoration="none" x="0" y="90">UNREGISTERED</text><text fill="#eeeeee" stroke="none" font-family="Arial" font-size="24px" font-style="normal" font-weight="normal" text-decoration="none" x="0" y="120">UNREGISTERED</text><text fill="#eeeeee" stroke="none" font-family="Arial" font-size="24px" font-style="normal" font-weight="normal" text-decoration="none" x="0" y="150">UNREGISTERED</text><text fill="#eeeeee" stroke="none" font-family="Arial" font-size="24px" font-style="normal" font-weight="normal" text-decoration="none" x="0" y="180">UNREGISTERED</text><text fill="#eeeeee" stroke="none" font-family="Arial" font-size="24px" font-style="normal" font-weight="normal" text-decoration="none" x="0" y="210">UNREGISTERED</text><text fill="#eeeeee" stroke="none" font-family="Arial" font-size="24px" font-style="normal" font-weight="normal" text-decoration="none" x="0" y="240">UNREGISTERED</text><text fill="#eeeeee" stroke="none" font-family="Arial" font-size="24px" font-style="normal" font-weight="normal" text-decoration="none" x="0" y="270">UNREGISTERED</text><text fill="#eeeeee" stroke="none" font-family="Arial" font-size="24px" font-style="normal" font-weight="normal" text-decoration="none" x="0" y="300">UNREGISTERED</text><text fill="#eeeeee" stroke="none" font-family="Arial" font-size="24px" font-style="normal" font-weight="normal" text-decoration="none" x="0" y="330">UNREGISTERED</text><text fill="#eeeeee" stroke="none" font-family="Arial" font-size="24px" font-style="normal" font-weight="normal" text-decoration="none" x="0" y="360">UNREGISTERED</text><text fill="#eeeeee" stroke="none" font-family="Arial" font-size="24px" font-style="normal" font-weight="normal" text-decoration="none" x="0" y="390">UNREGISTERED</text><text fill="#eeeeee" stroke="none" font-family="Arial" font-size="24px" font-style="normal" font-weight="normal" text-decoration="none" x="0" y="420">UNREGISTERED</text><text fill="#eeeeee" stroke="none" font-family="Arial" font-size="24px" font-style="normal" font-weight="normal" text-decoration="none" x="0" y="450">UNREGISTERED</text><text fill="#eeeeee" stroke="none" font-family="Arial" font-size="24px" font-style="normal" font-weight="normal" text-decoration="none" x="0" y="480">UNREGISTERED</text><text fill="#eeeeee" stroke="none" font-family="Arial" font-size="24px" font-style="normal" font-weight="normal" text-decoration="none" x="0" y="510">UNREGISTERED</text><text fill="#eeeeee" stroke="none" font-family="Arial" font-size="24px" font-style="normal" font-weight="normal" text-decoration="none" x="0" y="540">UNREGISTERED</text><text fill="#eeeeee" stroke="none" font-family="Arial" font-size="24px" font-style="normal" font-weight="normal" text-decoration="none" x="0" y="570">UNREGISTERED</text><text fill="#eeeeee" stroke="none" font-family="Arial" font-size="24px" font-style="normal" font-weight="normal" text-decoration="none" x="200" y="0">UNREGISTERED</text><text fill="#eeeeee" stroke="none" font-family="Arial" font-size="24px" font-style="normal" font-weight="normal" text-decoration="none" x="200" y="30">UNREGISTERED</text><text fill="#eeeeee" stroke="none" font-family="Arial" font-size="24px" font-style="normal" font-weight="normal" text-decoration="none" x="200" y="60">UNREGISTERED</text><text fill="#eeeeee" stroke="none" font-family="Arial" font-size="24px" font-style="normal" font-weight="normal" text-decoration="none" x="200" y="90">UNREGISTERED</text><text fill="#eeeeee" stroke="none" font-family="Arial" font-size="24px" font-style="normal" font-weight="normal" text-decoration="none" x="200" y="120">UNREGISTERED</text><text fill="#eeeeee" stroke="none" font-family="Arial" font-size="24px" font-style="normal" font-weight="normal" text-decoration="none" x="200" y="150">UNREGISTERED</text><text fill="#eeeeee" stroke="none" font-family="Arial" font-size="24px" font-style="normal" font-weight="normal" text-decoration="none" x="200" y="180">UNREGISTERED</text><text fill="#eeeeee" stroke="none" font-family="Arial" font-size="24px" font-style="normal" font-weight="normal" text-decoration="none" x="200" y="210">UNREGISTERED</text><text fill="#eeeeee" stroke="none" font-family="Arial" font-size="24px" font-style="normal" font-weight="normal" text-decoration="none" x="200" y="240">UNREGISTERED</text><text fill="#eeeeee" stroke="none" font-family="Arial" font-size="24px" font-style="normal" font-weight="normal" text-decoration="none" x="200" y="270">UNREGISTERED</text><text fill="#eeeeee" stroke="none" font-family="Arial" font-size="24px" font-style="normal" font-weight="normal" text-decoration="none" x="200" y="300">UNREGISTERED</text><text fill="#eeeeee" stroke="none" font-family="Arial" font-size="24px" font-style="normal" font-weight="normal" text-decoration="none" x="200" y="330">UNREGISTERED</text><text fill="#eeeeee" stroke="none" font-family="Arial" font-size="24px" font-style="normal" font-weight="normal" text-decoration="none" x="200" y="360">UNREGISTERED</text><text fill="#eeeeee" stroke="none" font-family="Arial" font-size="24px" font-style="normal" font-weight="normal" text-decoration="none" x="200" y="390">UNREGISTERED</text><text fill="#eeeeee" stroke="none" font-family="Arial" font-size="24px" font-style="normal" font-weight="normal" text-decoration="none" x="200" y="420">UNREGISTERED</text><text fill="#eeeeee" stroke="none" font-family="Arial" font-size="24px" font-style="normal" font-weight="normal" text-decoration="none" x="200" y="450">UNREGISTERED</text><text fill="#eeeeee" stroke="none" font-family="Arial" font-size="24px" font-style="normal" font-weight="normal" text-decoration="none" x="200" y="480">UNREGISTERED</text><text fill="#eeeeee" stroke="none" font-family="Arial" font-size="24px" font-style="normal" font-weight="normal" text-decoration="none" x="200" y="510">UNREGISTERED</text><text fill="#eeeeee" stroke="none" font-family="Arial" font-size="24px" font-style="normal" font-weight="normal" text-decoration="none" x="200" y="540">UNREGISTERED</text><text fill="#eeeeee" stroke="none" font-family="Arial" font-size="24px" font-style="normal" font-weight="normal" text-decoration="none" x="200" y="570">UNREGISTERED</text><text fill="#eeeeee" stroke="none" font-family="Arial" font-size="24px" font-style="normal" font-weight="normal" text-decoration="none" x="400" y="0">UNREGISTERED</text><text fill="#eeeeee" stroke="none" font-family="Arial" font-size="24px" font-style="normal" font-weight="normal" text-decoration="none" x="400" y="30">UNREGISTERED</text><text fill="#eeeeee" stroke="none" font-family="Arial" font-size="24px" font-style="normal" font-weight="normal" text-decoration="none" x="400" y="60">UNREGISTERED</text><text fill="#eeeeee" stroke="none" font-family="Arial" font-size="24px" font-style="normal" font-weight="normal" text-decoration="none" x="400" y="90">UNREGISTERED</text><text fill="#eeeeee" stroke="none" font-family="Arial" font-size="24px" font-style="normal" font-weight="normal" text-decoration="none" x="400" y="120">UNREGISTERED</text><text fill="#eeeeee" stroke="none" font-family="Arial" font-size="24px" font-style="normal" font-weight="normal" text-decoration="none" x="400" y="150">UNREGISTERED</text><text fill="#eeeeee" stroke="none" font-family="Arial" font-size="24px" font-style="normal" font-weight="normal" text-decoration="none" x="400" y="180">UNREGISTERED</text><text fill="#eeeeee" stroke="none" font-family="Arial" font-size="24px" font-style="normal" font-weight="normal" text-decoration="none" x="400" y="210">UNREGISTERED</text><text fill="#eeeeee" stroke="none" font-family="Arial" font-size="24px" font-style="normal" font-weight="normal" text-decoration="none" x="400" y="240">UNREGISTERED</text><text fill="#eeeeee" stroke="none" font-family="Arial" font-size="24px" font-style="normal" font-weight="normal" text-decoration="none" x="400" y="270">UNREGISTERED</text><text fill="#eeeeee" stroke="none" font-family="Arial" font-size="24px" font-style="normal" font-weight="normal" text-decoration="none" x="400" y="300">UNREGISTERED</text><text fill="#eeeeee" stroke="none" font-family="Arial" font-size="24px" font-style="normal" font-weight="normal" text-decoration="none" x="400" y="330">UNREGISTERED</text><text fill="#eeeeee" stroke="none" font-family="Arial" font-size="24px" font-style="normal" font-weight="normal" text-decoration="none" x="400" y="360">UNREGISTERED</text><text fill="#eeeeee" stroke="none" font-family="Arial" font-size="24px" font-style="normal" font-weight="normal" text-decoration="none" x="400" y="390">UNREGISTERED</text><text fill="#eeeeee" stroke="none" font-family="Arial" font-size="24px" font-style="normal" font-weight="normal" text-decoration="none" x="400" y="420">UNREGISTERED</text><text fill="#eeeeee" stroke="none" font-family="Arial" font-size="24px" font-style="normal" font-weight="normal" text-decoration="none" x="400" y="450">UNREGISTERED</text><text fill="#eeeeee" stroke="none" font-family="Arial" font-size="24px" font-style="normal" font-weight="normal" text-decoration="none" x="400" y="480">UNREGISTERED</text><text fill="#eeeeee" stroke="none" font-family="Arial" font-size="24px" font-style="normal" font-weight="normal" text-decoration="none" x="400" y="510">UNREGISTERED</text><text fill="#eeeeee" stroke="none" font-family="Arial" font-size="24px" font-style="normal" font-weight="normal" text-decoration="none" x="400" y="540">UNREGISTERED</text><text fill="#eeeeee" stroke="none" font-family="Arial" font-size="24px" font-style="normal" font-weight="normal" text-decoration="none" x="400" y="570">UNREGISTERED</text><text fill="#eeeeee" stroke="none" font-family="Arial" font-size="24px" font-style="normal" font-weight="normal" text-decoration="none" x="600" y="0">UNREGISTERED</text><text fill="#eeeeee" stroke="none" font-family="Arial" font-size="24px" font-style="normal" font-weight="normal" text-decoration="none" x="600" y="30">UNREGISTERED</text><text fill="#eeeeee" stroke="none" font-family="Arial" font-size="24px" font-style="normal" font-weight="normal" text-decoration="none" x="600" y="60">UNREGISTERED</text><text fill="#eeeeee" stroke="none" font-family="Arial" font-size="24px" font-style="normal" font-weight="normal" text-decoration="none" x="600" y="90">UNREGISTERED</text><text fill="#eeeeee" stroke="none" font-family="Arial" font-size="24px" font-style="normal" font-weight="normal" text-decoration="none" x="600" y="120">UNREGISTERED</text><text fill="#eeeeee" stroke="none" font-family="Arial" font-size="24px" font-style="normal" font-weight="normal" text-decoration="none" x="600" y="150">UNREGISTERED</text><text fill="#eeeeee" stroke="none" font-family="Arial" font-size="24px" font-style="normal" font-weight="normal" text-decoration="none" x="600" y="180">UNREGISTERED</text><text fill="#eeeeee" stroke="none" font-family="Arial" font-size="24px" font-style="normal" font-weight="normal" text-decoration="none" x="600" y="210">UNREGISTERED</text><text fill="#eeeeee" stroke="none" font-family="Arial" font-size="24px" font-style="normal" font-weight="normal" text-decoration="none" x="600" y="240">UNREGISTERED</text><text fill="#eeeeee" stroke="none" font-family="Arial" font-size="24px" font-style="normal" font-weight="normal" text-decoration="none" x="600" y="270">UNREGISTERED</text><text fill="#eeeeee" stroke="none" font-family="Arial" font-size="24px" font-style="normal" font-weight="normal" text-decoration="none" x="600" y="300">UNREGISTERED</text><text fill="#eeeeee" stroke="none" font-family="Arial" font-size="24px" font-style="normal" font-weight="normal" text-decoration="none" x="600" y="330">UNREGISTERED</text><text fill="#eeeeee" stroke="none" font-family="Arial" font-size="24px" font-style="normal" font-weight="normal" text-decoration="none" x="600" y="360">UNREGISTERED</text><text fill="#eeeeee" stroke="none" font-family="Arial" font-size="24px" font-style="normal" font-weight="normal" text-decoration="none" x="600" y="390">UNREGISTERED</text><text fill="#eeeeee" stroke="none" font-family="Arial" font-size="24px" font-style="normal" font-weight="normal" text-decoration="none" x="600" y="420">UNREGISTERED</text><text fill="#eeeeee" stroke="none" font-family="Arial" font-size="24px" font-style="normal" font-weight="normal" text-decoration="none" x="600" y="450">UNREGISTERED</text><text fill="#eeeeee" stroke="none" font-family="Arial" font-size="24px" font-style="normal" font-weight="normal" text-decoration="none" x="600" y="480">UNREGISTERED</text><text fill="#eeeeee" stroke="none" font-family="Arial" font-size="24px" font-style="normal" font-weight="normal" text-decoration="none" x="600" y="510">UNREGISTERED</text><text fill="#eeeeee" stroke="none" font-family="Arial" font-size="24px" font-style="normal" font-weight="normal" text-decoration="none" x="600" y="540">UNREGISTERED</text><text fill="#eeeeee" stroke="none" font-family="Arial" font-size="24px" font-style="normal" font-weight="normal" text-decoration="none" x="600" y="570">UNREGISTERED</text><g transform="translate(-30,-30) scale(1,1)"><rect fill="#C0C0C0" stroke="none" x="47" y="47" width="294.4" height="15" opacity="0.2"/></g><g transform="translate(-30,-30) scale(1,1)"><rect fill="#C0C0C0" stroke="none" x="47" y="61" width="736" height="562" opacity="0.2"/></g><g transform="translate(-30,-30) scale(1,1)"><rect fill="#ffffff" stroke="none" x="40" y="55" width="736" height="561"/></g><g transform="translate(-30,-30) scale(1,1)"><path fill="none" stroke="#000000" d="M 40 55 L 776 55 L 776 616 L 40 616 L 40 55 Z Z" stroke-miterlimit="10"/></g><g transform="translate(-30,-30) scale(1,1)"><rect fill="#ffffff" stroke="none" x="40" y="40" width="294.4" height="15"/></g><g transform="translate(-30,-30) scale(1,1)"><path fill="none" stroke="#000000" d="M 40 40 L 334.4 40 L 334.4 55 L 40 55 L 40 40 Z Z" stroke-miterlimit="10"/></g><g transform="translate(-30,-30) scale(1,1)"><rect fill="#ffffff" stroke="none" x="40" y="54" width="736" height="562"/></g><g transform="translate(-30,-30) scale(1,1)"><path fill="none" stroke="#000000" d="M 40 54 L 776 54 L 776 616 L 40 616 L 40 54 Z Z" stroke-miterlimit="10"/></g><g transform="translate(-30,-30) scale(1,1)"><g><path fill="none" stroke="none"/><text fill="#000000" stroke="none" font-family="Arial" font-size="13px" font-style="normal" font-weight="bold" text-decoration="none" x="363.1982421875" y="74.5">aplicacionmozo</text></g></g><g transform="translate(-30,-30) scale(1,1)"><rect fill="#C0C0C0" stroke="none" x="119" y="135" width="89.19999999999999" height="15" opacity="0.2"/></g><g transform="translate(-30,-30) scale(1,1)"><rect fill="#C0C0C0" stroke="none" x="119" y="149" width="223" height="185" opacity="0.2"/></g><g transform="translate(-30,-30) scale(1,1)"><rect fill="#ffffff" stroke="none" x="112" y="143" width="223" height="184"/></g><g transform="translate(-30,-30) scale(1,1)"><path fill="none" stroke="#000000" d="M 112 143 L 335 143 L 335 327 L 112 327 L 112 143 Z Z" stroke-miterlimit="10"/></g><g transform="translate(-30,-30) scale(1,1)"><rect fill="#ffffff" stroke="none" x="112" y="128" width="89.19999999999999" height="15"/></g><g transform="translate(-30,-30) scale(1,1)"><path fill="none" stroke="#000000" d="M 112 128 L 201.2 128 L 201.2 143 L 112 143 L 112 128 Z Z" stroke-miterlimit="10"/></g><g transform="translate(-30,-30) scale(1,1)"><rect fill="#ffffff" stroke="none" x="112" y="142" width="223" height="185"/></g><g transform="translate(-30,-30) scale(1,1)"><path fill="none" stroke="#000000" d="M 112 142 L 335 142 L 335 327 L 112 327 L 112 142 Z Z" stroke-miterlimit="10"/></g><g transform="translate(-30,-30) scale(1,1)"><g><path fill="none" stroke="none"/><text fill="#000000" stroke="none" font-family="Arial" font-size="13px" font-style="normal" font-weight="bold" text-decoration="none" x="193.516845703125" y="162.5">controllers</text></g></g><g transform="translate(-30,-30) scale(1,1)"><rect fill="#C0C0C0" stroke="none" x="119" y="415" width="27.5966796875" height="15" opacity="0.2"/></g><g transform="translate(-30,-30) scale(1,1)"><rect fill="#C0C0C0" stroke="none" x="119" y="429" width="68.99169921875" height="25" opacity="0.2"/></g><g transform="translate(-30,-30) scale(1,1)"><rect fill="#ffffff" stroke="none" x="112" y="423" width="68.99169921875" height="24"/></g><g transform="translate(-30,-30) scale(1,1)"><path fill="none" stroke="#000000" d="M 112 423 L 180.99169921875 423 L 180.99169921875 447 L 112 447 L 112 423 Z Z" stroke-miterlimit="10"/></g><g transform="translate(-30,-30) scale(1,1)"><rect fill="#ffffff" stroke="none" x="112" y="408" width="27.5966796875" height="15"/></g><g transform="translate(-30,-30) scale(1,1)"><path fill="none" stroke="#000000" d="M 112 408 L 139.5966796875 408 L 139.5966796875 423 L 112 423 L 112 408 Z Z" stroke-miterlimit="10"/></g><g transform="translate(-30,-30) scale(1,1)"><rect fill="#ffffff" stroke="none" x="112" y="422" width="68.99169921875" height="25"/></g><g transform="translate(-30,-30) scale(1,1)"><path fill="none" stroke="#000000" d="M 112 422 L 180.99169921875 422 L 180.99169921875 447 L 112 447 L 112 422 Z Z" stroke-miterlimit="10"/></g><g transform="translate(-30,-30) scale(1,1)"><g><path fill="none" stroke="none"/><text fill="#000000" stroke="none" font-family="Arial" font-size="13px" font-style="normal" font-weight="bold" text-decoration="none" x="132.7626953125" y="442.5">login</text></g></g><g transform="translate(-30,-30) scale(1,1)"><path fill="none" stroke="#000000" d="M 154 407 L 184 328" stroke-miterlimit="10"/></g><g transform="translate(-30,-30) scale(1,1)"><path fill="#FFFFFF" stroke="none" d="M 174.51492341013986 334.54403501996507 C 174.51492341013986 330.67804141996504 177.64892981013986 327.54403501996507 181.51492341013986 327.54403501996507 C 185.38091701013985 327.54403501996507 188.51492341013986 330.67804141996504 188.51492341013986 334.54403501996507 C 188.51492341013986 338.4100286199651 185.38091701013985 341.54403501996507 181.51492341013986 341.54403501996507 C 177.64892981013986 341.54403501996507 174.51492341013986 338.4100286199651 174.51492341013986 334.54403501996507 Z"/></g><g transform="translate(-30,-30) scale(1,1)"><path fill="none" stroke="#000000" d="M 174.51492341013986 334.54403501996507 C 174.51492341013986 330.67804141996504 177.64892981013986 327.54403501996507 181.51492341013986 327.54403501996507 C 185.38091701013985 327.54403501996507 188.51492341013986 330.67804141996504 188.51492341013986 334.54403501996507 C 188.51492341013986 338.4100286199651 185.38091701013985 341.54403501996507 181.51492341013986 341.54403501996507 C 177.64892981013986 341.54403501996507 174.51492341013986 338.4100286199651 174.51492341013986 334.54403501996507 Z" stroke-miterlimit="10"/></g><g transform="translate(-30,-30) scale(1,1)"><path fill="none" stroke="#000000" d="M 179.02984682027972 341.08807003993013 L 184 328" stroke-miterlimit="10"/></g><g transform="translate(-30,-30) scale(1,1)"><path fill="none" stroke="#000000" d="M 188.05895843010492 337.02911160982524 L 174.9708883901748 332.0589584301049" stroke-miterlimit="10"/></g></g></svg>